<svg width="40" height="40" viewBox="0 0 40 40" fill="none" xmlns="http://www.w3.org/2000/svg">
<circle cx="20" cy="20" r="20" transform="rotate(-180 20 20)" fill="#303030"/>
<path d="M27.5 21C28.0523 21 28.5 20.5523 28.5 20C28.5 19.4477 28.0523 19 27.5 19L27.5 21ZM11.7929 19.2929C11.4024 19.6834 11.4024 20.3166 11.7929 20.7071L18.1569 27.0711C18.5474 27.4616 19.1805 27.4616 19.5711 27.0711C19.9616 26.6805 19.9616 26.0474 19.5711 25.6569L13.9142 20L19.5711 14.3431C19.9616 13.9526 19.9616 13.3195 19.5711 12.9289C19.1805 12.5384 18.5474 12.5384 18.1569 12.9289L11.7929 19.2929ZM27.5 19L12.5 19L12.5 21L27.5 21L27.5 19Z" fill="#A1A1A1"/>
</svg>
