<svg width="110" height="32" viewBox="0 0 110 32" fill="none" xmlns="http://www.w3.org/2000/svg">
<path d="M109.788 0.223801V16.5919H106.079L100.165 7.99225H100.069V16.5919H95.6256V0.223801H99.3979L105.216 8.79147H105.344V0.223801H109.788Z" fill="#020202"/>
<path d="M92.2484 8.40783C92.2484 10.2301 91.8941 11.7672 91.1854 13.0193C90.4768 14.2661 89.5204 15.2119 88.3162 15.8566C87.1121 16.496 85.7694 16.8157 84.2881 16.8157C82.7963 16.8157 81.4482 16.4933 80.2441 15.8486C79.0452 15.1986 78.0915 14.2501 77.3829 13.0034C76.6795 11.7512 76.3279 10.2194 76.3279 8.40783C76.3279 6.5856 76.6795 5.05109 77.3829 3.8043C78.0915 2.55218 79.0452 1.60644 80.2441 0.96706C81.4482 0.322353 82.7963 0 84.2881 0C85.7694 0 87.1121 0.322353 88.3162 0.96706C89.5204 1.60644 90.4768 2.55218 91.1854 3.8043C91.8941 5.05109 92.2484 6.5856 92.2484 8.40783ZM87.6768 8.40783C87.6768 7.42745 87.5463 6.60158 87.2852 5.93023C87.0295 5.25356 86.6485 4.74206 86.1423 4.39573C85.6415 4.04407 85.0234 3.86824 84.2881 3.86824C83.5529 3.86824 82.9321 4.04407 82.426 4.39573C81.9251 4.74206 81.5441 5.25356 81.2831 5.93023C81.0273 6.60158 80.8994 7.42745 80.8994 8.40783C80.8994 9.38821 81.0273 10.2167 81.2831 10.8934C81.5441 11.5648 81.9251 12.0763 82.426 12.4279C82.9321 12.7742 83.5529 12.9474 84.2881 12.9474C85.0234 12.9474 85.6415 12.7742 86.1423 12.4279C86.6485 12.0763 87.0295 11.5648 87.2852 10.8934C87.5463 10.2167 87.6768 9.38821 87.6768 8.40783Z" fill="#020202"/>
<path d="M68.2672 5.62653C68.1979 5.34414 68.0887 5.09638 67.9395 4.88325C67.7903 4.6648 67.6039 4.48098 67.3801 4.33179C67.1616 4.17727 66.9059 4.06272 66.6128 3.98812C66.3251 3.9082 66.0081 3.86824 65.6617 3.86824C64.9158 3.86824 64.2791 4.04673 63.7516 4.40372C63.2294 4.7607 62.8298 5.27487 62.5528 5.94622C62.281 6.61757 62.1452 7.42745 62.1452 8.37586C62.1452 9.33492 62.2757 10.1555 62.5368 10.8375C62.7979 11.5195 63.1868 12.0416 63.7036 12.4039C64.2205 12.7663 64.8625 12.9474 65.6298 12.9474C66.3065 12.9474 66.8686 12.8488 67.3161 12.6517C67.769 12.4546 68.1074 12.1748 68.3312 11.8125C68.5549 11.4502 68.6668 11.0239 68.6668 10.5338L69.4341 10.6137H65.6937V7.44876H72.9507V9.71855C72.9507 11.2104 72.6336 12.4865 71.9996 13.5468C71.3709 14.6018 70.5024 15.4117 69.3941 15.9765C68.2912 16.5359 67.0258 16.8157 65.5978 16.8157C64.0047 16.8157 62.606 16.4773 61.4019 15.8006C60.1977 15.124 59.2573 14.1596 58.5806 12.9074C57.9093 11.6553 57.5736 10.1661 57.5736 8.43979C57.5736 7.08644 57.7787 5.88761 58.189 4.84329C58.6046 3.79897 59.18 2.91716 59.9153 2.19786C60.6506 1.47324 61.5005 0.927099 62.4649 0.559456C63.4292 0.186485 64.4629 0 65.5658 0C66.5356 0 67.436 0.138532 68.2672 0.415597C69.1037 0.687332 69.8417 1.07629 70.4811 1.58246C71.1258 2.08331 71.6453 2.6774 72.0395 3.36473C72.4338 4.05206 72.6736 4.80599 72.7588 5.62653H68.2672Z" fill="#020202"/>
<path d="M42.1121 16.5919H37.3168L42.7195 0.223801H48.7936L54.1964 16.5919H49.401L45.8205 4.73142H45.6926L42.1121 16.5919Z" fill="#020202"/>
<path d="M20.2568 16.5919V0.223801H27.322C28.5368 0.223801 29.5998 0.444919 30.5109 0.887156C31.422 1.32939 32.1306 1.96611 32.6368 2.7973C33.143 3.62849 33.3961 4.62485 33.3961 5.78639C33.3961 6.95859 33.135 7.94696 32.6128 8.75151C32.096 9.55606 31.3687 10.1635 30.4309 10.5737C29.4985 10.984 28.4089 11.1891 27.1621 11.1891H22.9422V7.7365H26.267C26.7892 7.7365 27.2341 7.67256 27.6017 7.54468C27.9747 7.41148 28.2597 7.20102 28.4569 6.9133C28.6593 6.62558 28.7606 6.24994 28.7606 5.78639C28.7606 5.31751 28.6593 4.93655 28.4569 4.6435C28.2597 4.34513 27.9747 4.12667 27.6017 3.98814C27.2341 3.84428 26.7892 3.77235 26.267 3.77235H24.7005V16.5919H20.2568ZM29.8475 9.07919L33.9395 16.5919H29.1122L25.1161 9.07919H29.8475Z" fill="#020202"/>
<path d="M4.79534 16.5919H0L5.40275 0.223801H11.4768L16.8796 16.5919H12.0843L8.50373 4.73142H8.37586L4.79534 16.5919Z" fill="#020202"/>
<path d="M102.891 23.3951H103.786L106.302 27.424H106.377L108.893 23.3951H109.788L106.725 28.2074V31.8839H105.954V28.2074L102.891 23.3951Z" fill="#020202"/>
<path d="M92.6816 31.8839V23.3951H93.4567V27.2872H98.2732V23.3951H99.0483V31.8839H98.2732V27.9835H93.4567V31.8839H92.6816Z" fill="#020202"/>
<path d="M83.3637 31.8839V23.3951H86.1035C86.7059 23.3951 87.2088 23.5112 87.6123 23.7433C88.0185 23.9726 88.3238 24.2849 88.5283 24.68C88.7355 25.0752 88.8392 25.5201 88.8392 26.0147C88.8392 26.5093 88.7369 26.9556 88.5324 27.3535C88.328 27.7487 88.024 28.0623 87.6206 28.2944C87.2171 28.5238 86.7156 28.6384 86.1159 28.6384H83.9606V27.9421H86.0952C86.5401 27.9421 86.909 27.8592 87.2019 27.6934C87.4948 27.5248 87.7131 27.2955 87.8568 27.0053C88.0033 26.7152 88.0765 26.385 88.0765 26.0147C88.0765 25.6444 88.0033 25.3142 87.8568 25.0241C87.7131 24.7339 87.4934 24.506 87.1978 24.3402C86.9049 24.1744 86.5332 24.0915 86.0828 24.0915H84.1388V31.8839H83.3637Z" fill="#020202"/>
<path d="M73.3288 31.8839H72.5164L75.6043 23.3951H76.4333L79.5213 31.8839H78.7089L76.0478 24.4023H75.9898L73.3288 31.8839ZM73.9132 28.6302H78.1244V29.3265H73.9132V28.6302Z" fill="#020202"/>
<path d="M62.842 31.8839V23.3951H65.5818C66.1842 23.3951 66.6871 23.5043 67.0905 23.7226C67.4967 23.9381 67.8021 24.2379 68.0066 24.622C68.2138 25.0033 68.3174 25.4413 68.3174 25.936C68.3174 26.4306 68.2138 26.8672 68.0066 27.2458C67.8021 27.6243 67.4981 27.92 67.0947 28.1328C66.6912 28.3455 66.1911 28.4519 65.5942 28.4519H63.2606V27.7431H65.5735C66.0156 27.7431 66.3831 27.6699 66.676 27.5235C66.9717 27.377 67.1914 27.1684 67.3351 26.8976C67.4815 26.6268 67.5548 26.3062 67.5548 25.936C67.5548 25.5657 67.4815 25.2424 67.3351 24.966C67.1886 24.6869 66.9676 24.4714 66.6719 24.3194C66.379 24.1674 66.0087 24.0915 65.5611 24.0915H63.6171V31.8839H62.842ZM66.5849 28.054L68.6739 31.8839H67.7786L65.7103 28.054H66.5849Z" fill="#020202"/>
<path d="M58.1456 26.0479C58.0683 25.766 57.955 25.5021 57.8057 25.2562C57.6565 25.0075 57.4714 24.7906 57.2503 24.6054C57.032 24.4175 56.7792 24.2711 56.4918 24.1661C56.2072 24.0611 55.8894 24.0086 55.5385 24.0086C54.9858 24.0086 54.4912 24.1523 54.0546 24.4396C53.618 24.727 53.2726 25.1415 53.0184 25.6831C52.7669 26.2247 52.6412 26.8769 52.6412 27.6395C52.6412 28.3994 52.7683 29.0502 53.0225 29.5918C53.2767 30.1334 53.6249 30.5493 54.067 30.8394C54.5119 31.1268 55.0204 31.2705 55.5924 31.2705C56.1146 31.2705 56.5761 31.1544 56.9768 30.9223C57.3774 30.6902 57.6897 30.3586 57.9135 29.9275C58.1401 29.4964 58.2506 28.9839 58.2451 28.3897L58.4938 28.4685H55.7747V27.7722H58.9995V28.4685C58.9995 29.1925 58.853 29.8184 58.5601 30.3462C58.2672 30.8739 57.8652 31.2815 57.3539 31.5689C56.8427 31.8563 56.2555 32 55.5924 32C54.8518 32 54.2038 31.8218 53.6484 31.4653C53.093 31.1061 52.6605 30.6004 52.351 29.9482C52.0443 29.2933 51.8909 28.5238 51.8909 27.6395C51.8909 26.9736 51.9794 26.3726 52.1562 25.8365C52.3331 25.3004 52.5831 24.8417 52.9064 24.4604C53.2325 24.079 53.618 23.7875 54.0629 23.5858C54.5078 23.3813 54.9996 23.2791 55.5385 23.2791C56.0027 23.2791 56.4269 23.3523 56.811 23.4987C57.1978 23.6452 57.5377 23.8469 57.8306 24.1039C58.1263 24.3581 58.3681 24.6524 58.556 24.9868C58.7466 25.3184 58.8751 25.6721 58.9415 26.0479H58.1456Z" fill="#020202"/>
<path d="M48.0484 27.6395C48.0484 28.5238 47.8909 29.2933 47.5759 29.9482C47.2609 30.6004 46.8271 31.1061 46.2744 31.4653C45.7245 31.8218 45.0917 32 44.376 32C43.6603 32 43.0262 31.8218 42.4735 31.4653C41.9236 31.1061 41.4912 30.6004 41.1761 29.9482C40.8639 29.2933 40.7078 28.5238 40.7078 27.6395C40.7078 26.7553 40.8639 25.9871 41.1761 25.3349C41.4912 24.68 41.925 24.1744 42.4776 23.8179C43.0303 23.4587 43.6631 23.2791 44.376 23.2791C45.0917 23.2791 45.7245 23.4587 46.2744 23.8179C46.8271 24.1744 47.2609 24.68 47.5759 25.3349C47.8909 25.9871 48.0484 26.7553 48.0484 27.6395ZM47.2941 27.6395C47.2941 26.8796 47.1669 26.2289 46.9127 25.6873C46.6585 25.1429 46.3117 24.727 45.8723 24.4396C45.433 24.1523 44.9342 24.0086 44.376 24.0086C43.8206 24.0086 43.3232 24.1523 42.8839 24.4396C42.4445 24.727 42.0963 25.1415 41.8393 25.6831C41.5851 26.2247 41.458 26.8769 41.458 27.6395C41.458 28.3994 41.5851 29.0502 41.8393 29.5918C42.0936 30.1334 42.4403 30.5493 42.8797 30.8394C43.3191 31.1268 43.8178 31.2705 44.376 31.2705C44.9342 31.2705 45.433 31.1268 45.8723 30.8394C46.3145 30.552 46.6626 30.1375 46.9169 29.5959C47.1711 29.0516 47.2968 28.3994 47.2941 27.6395Z" fill="#020202"/>
<path d="M30.7101 24.0915V23.3951H36.8653V24.0915H34.1752V31.8839H33.4001V24.0915H30.7101Z" fill="#020202"/>
<path d="M26.8676 27.6395C26.8676 28.5238 26.7101 29.2933 26.3951 29.9482C26.0801 30.6004 25.6463 31.1061 25.0936 31.4653C24.5437 31.8218 23.9109 32 23.1952 32C22.4795 32 21.8454 31.8218 21.2927 31.4653C20.7428 31.1061 20.3104 30.6004 19.9954 29.9482C19.6831 29.2933 19.527 28.5238 19.527 27.6395C19.527 26.7553 19.6831 25.9871 19.9954 25.3349C20.3104 24.68 20.7442 24.1744 21.2969 23.8179C21.8495 23.4587 22.4823 23.2791 23.1952 23.2791C23.9109 23.2791 24.5437 23.4587 25.0936 23.8179C25.6463 24.1744 26.0801 24.68 26.3951 25.3349C26.7101 25.9871 26.8676 26.7553 26.8676 27.6395ZM26.1133 27.6395C26.1133 26.8796 25.9862 26.2289 25.7319 25.6873C25.4777 25.1429 25.1309 24.727 24.6916 24.4396C24.2522 24.1523 23.7534 24.0086 23.1952 24.0086C22.6398 24.0086 22.1424 24.1523 21.7031 24.4396C21.2637 24.727 20.9155 25.1415 20.6585 25.6831C20.4043 26.2247 20.2772 26.8769 20.2772 27.6395C20.2772 28.3994 20.4043 29.0502 20.6585 29.5918C20.9128 30.1334 21.2596 30.5493 21.6989 30.8394C22.1383 31.1268 22.6371 31.2705 23.1952 31.2705C23.7534 31.2705 24.2522 31.1268 24.6916 30.8394C25.1337 30.552 25.4819 30.1375 25.7361 29.5959C25.9903 29.0516 26.116 28.3994 26.1133 27.6395Z" fill="#020202"/>
<path d="M9.31793 31.8839V23.3951H10.093V27.2872H14.9094V23.3951H15.6845V31.8839H14.9094V27.9835H10.093V31.8839H9.31793Z" fill="#020202"/>
<path d="M0 31.8839V23.3951H2.7398C3.34219 23.3951 3.84511 23.5112 4.24855 23.7433C4.65476 23.9726 4.9601 24.2849 5.16458 24.68C5.37183 25.0752 5.47545 25.5201 5.47545 26.0147C5.47545 26.5093 5.37321 26.9556 5.16873 27.3535C4.96424 27.7487 4.66028 28.0623 4.25684 28.2944C3.8534 28.5238 3.35187 28.6384 2.75223 28.6384H0.59687V27.9421H2.73151C3.1764 27.9421 3.5453 27.8592 3.8382 27.6934C4.13111 27.5248 4.34941 27.2955 4.4931 27.0053C4.63956 26.7152 4.71278 26.385 4.71278 26.0147C4.71278 25.6444 4.63956 25.3142 4.4931 25.0241C4.34941 24.7339 4.12973 24.506 3.83406 24.3402C3.54115 24.1744 3.16949 24.0915 2.71907 24.0915H0.775102V31.8839H0Z" fill="#020202"/>
</svg>
